<svg xmlns="http://www.w3.org/2000/svg" viewBox="0 0 450 120" width="450" height="120">
  <!-- 🔥 OUTLINE FIRE ICON -->
  <g transform="translate(15, 12) scale(2.4)">
    <!-- Outer Flame Outline -->
    <path 
      d="M15.833 2.5c0 0-4.166 6.667-4.166 11.667 0 2.222.833 4.166 2.5 5.833-2.5-1.667-4.167-4.167-4.167-6.667 0-3.333 2.5-7.5 2.5-7.5s-6.666 4.167-8.333 10c-1.667 5.833.833 11.667 5.833 14.167C15 32.5 20.833 30 23.333 25c2.5-5 0-10.833-3.333-14.167-2.5-2.5-4.167-8.333-4.167-8.333z" 
      fill="none" 
      stroke="#FFFFFF" 
      stroke-width="1.5" 
      stroke-linecap="round" 
      stroke-linejoin="round"
    />
    <!-- Inner Flame Detail -->
    <path 
      d="M15 16.667c-1.667 1.666-2.5 3.333-2.5 5.833 0 2.5 1.667 4.167 4.167 4.167s4.166-1.667 4.166-4.167c0-2.5-2.5-5.833-5.833-5.833z" 
      fill="none" 
      stroke="#FFFFFF" 
      stroke-width="1.5" 
      stroke-linecap="round" 
      stroke-linejoin="round"
    />
  </g>

  <!-- TYPOGRAPHY -->
  <text 
    x="105" 
    y="70" 
    font-family="-apple-system, BlinkMacSystemFont, 'Segoe UI', Roboto, Helvetica, Arial, sans-serif" 
    fill="#FFFFFF"
  >
    <!-- Thicker weight for 'Ember' -->
    <tspan font-weight="800" font-size="48" letter-spacing="-0.5">Ember</tspan>
    <!-- Thinner weight for 'Bots' with explicit spacing -->
    <tspan font-weight="300" font-size="48" dx="16" letter-spacing="0.5">Bots</tspan>
  </text>
</svg>
